<svg xmlns="http://www.w3.org/2000/svg" width="18" height="24" fill="none"><defs><clipPath id="a"><rect width="17" height="23" fill="#fff" fill-opacity="0" rx="0" transform="translate(.5 .5)"/></clipPath></defs><rect width="17" height="23" fill="none" rx="0" transform="translate(.5 .5)"/><g clip-path="url(#a)"><path fill="#2E2F42" d="M15 6H3c-.83 0-1.5.67-1.5 1.5v9c0 .82.67 1.5 1.5 1.5h12c.82 0 1.5-.68 1.5-1.5v-9c0-.83-.68-1.5-1.5-1.5Zm-.3 3.18L9.39 12.5a.75.75 0 0 1-.79 0L3.3 9.18a.633.633 0 0 1-.3-.54c0-.5.54-.8.97-.54L9 11.25l5.02-3.15c.43-.26.98.04.98.54 0 .22-.12.42-.3.54Z"/></g></svg>