<svg xmlns="http://www.w3.org/2000/svg" width="18" height="18" fill="none"><defs><clipPath id="a"><rect width="17" height="17" fill="#fff" fill-opacity="0" rx="0" transform="translate(.5 .5)"/></clipPath></defs><rect width="17" height="17" fill="none" rx="0" transform="translate(.5 .5)"/><g clip-path="url(#a)"><path fill="#4D5AE5" d="M9 9c1.65 0 3-1.35 3-3 0-1.66-1.35-3-3-3-1.66 0-3 1.34-3 3 0 1.65 1.34 3 3 3Zm0 1.5c-2.01 0-6 1-6 3v.75c0 .41.33.75.75.75h10.5c.41 0 .75-.34.75-.75v-.75c0-2-4-3-6-3Z"/></g></svg>