<svg xmlns="http://www.w3.org/2000/svg" width="18" height="24" fill="none"><defs><clipPath id="a"><rect width="17" height="23" fill="#fff" fill-opacity="0" rx="0" transform="translate(.5 .5)"/></clipPath></defs><rect width="17" height="23" fill="none" rx="0" transform="translate(.5 .5)"/><g clip-path="url(#a)"><path fill="#2E2F42" d="m14.72 13.86-1.84-.21c-.44-.05-.87.1-1.18.41l-1.34 1.33a10.894 10.894 0 0 1-4.76-4.76l1.33-1.34c.32-.31.47-.75.42-1.19l-.21-1.82A1.44 1.44 0 0 0 5.7 5H4.45c-.82 0-1.5.68-1.45 1.49.38 6.18 5.32 11.12 11.5 11.5.81.05 1.49-.63 1.49-1.45v-1.25a1.43 1.43 0 0 0-1.27-1.43Z"/></g></svg>